<svg width="24" height="24" viewBox="0 0 24 24" fill="none" xmlns="http://www.w3.org/2000/svg">
<path d="M15.4238 6.09998C15.2516 6.01976 15.0601 5.98996 14.8716 6.01402C14.6832 6.03809 14.5054 6.11505 14.3588 6.23598L8.3588 11.236C8.24591 11.3298 8.15506 11.4474 8.09272 11.5803C8.03037 11.7132 7.99805 11.8582 7.99805 12.005C7.99805 12.1518 8.03037 12.2968 8.09272 12.4297C8.15506 12.5626 8.24591 12.6801 8.3588 12.774L14.3588 17.774C14.5398 17.9213 14.7664 18.0012 14.9998 18C15.1464 18.0001 15.2913 17.9677 15.4238 17.905C15.5959 17.8244 15.7414 17.6965 15.8434 17.5363C15.9454 17.376 15.9997 17.19 15.9998 17V6.99998C15.9987 6.81085 15.944 6.6259 15.8421 6.46659C15.7401 6.30729 15.5951 6.18017 15.4238 6.09998ZM13.9998 14.865L10.5618 12L13.9998 9.13498V14.865Z" fill="#3B7DD6"/>
</svg>
