<svg width="54" height="54" viewBox="0 0 54 54" fill="none" xmlns="http://www.w3.org/2000/svg">
<path d="M47.25 9H6.75C6.15326 9 5.58097 9.23705 5.15901 9.65901C4.73705 10.081 4.5 10.6533 4.5 11.25V42.75C4.5 43.3467 4.73705 43.919 5.15901 44.341C5.58097 44.7629 6.15326 45 6.75 45H47.25C47.8467 45 48.419 44.7629 48.841 44.341C49.2629 43.919 49.5 43.3467 49.5 42.75V11.25C49.5 10.6533 49.2629 10.081 48.841 9.65901C48.419 9.23705 47.8467 9 47.25 9ZM15.75 15.75C16.64 15.75 17.51 16.0139 18.2501 16.5084C18.9901 17.0029 19.5669 17.7057 19.9075 18.5279C20.2481 19.3502 20.3372 20.255 20.1635 21.1279C19.9899 22.0008 19.5613 22.8026 18.932 23.432C18.3026 24.0613 17.5008 24.4899 16.6279 24.6635C15.755 24.8372 14.8502 24.7481 14.0279 24.4075C13.2057 24.0669 12.5029 23.4901 12.0084 22.7501C11.5139 22.01 11.25 21.14 11.25 20.25C11.25 19.0565 11.7241 17.9119 12.568 17.068C13.4119 16.2241 14.5565 15.75 15.75 15.75ZM45 40.5H9V36.7493L18 29.25L24.4283 34.0717L36 22.5L45 34.4993V40.5Z" fill="#F8FAFC"/>
</svg>
