<svg width="20" height="20" viewBox="0 0 20 20" fill="none" xmlns="http://www.w3.org/2000/svg">
<path d="M1.91086 18.0892C2.06714 18.2454 2.27906 18.3332 2.50003 18.3332C2.721 18.3332 2.93292 18.2454 3.0892 18.0892L5.75586 15.4225C7.0252 16.2286 8.49637 16.6599 10 16.6667C13.6042 16.6667 16.8559 14.1667 18.2817 10.2883C18.3508 10.1023 18.3508 9.89768 18.2817 9.71167C17.7206 8.14653 16.7957 6.73703 15.5834 5.59917L18.0934 3.08917C18.173 3.0123 18.2364 2.92035 18.2801 2.81868C18.3238 2.71701 18.3468 2.60766 18.3477 2.49701C18.3487 2.38636 18.3276 2.27663 18.2857 2.17421C18.2438 2.0718 18.1819 1.97875 18.1037 1.90051C18.0254 1.82227 17.9324 1.76039 17.83 1.71849C17.7276 1.67659 17.6178 1.6555 17.5072 1.65646C17.3965 1.65743 17.2872 1.68041 17.1855 1.72409C17.0839 1.76776 16.9919 1.83125 16.915 1.91084L14.2484 4.57751C12.9778 3.77065 11.5051 3.33935 10 3.33334C6.39586 3.33334 3.1442 5.83334 1.71836 9.71167C1.64922 9.89768 1.64922 10.1023 1.71836 10.2883C2.28071 11.8539 3.20698 13.2634 4.42086 14.4008L1.91086 16.9108C1.75464 17.0671 1.66687 17.279 1.66687 17.5C1.66687 17.721 1.75464 17.9329 1.91086 18.0892ZM14.3884 6.79001C15.3613 7.67843 16.1201 8.77596 16.6075 10C15.3759 13.0475 12.8109 15 10 15C8.94014 14.9952 7.89879 14.7217 6.97336 14.205L8.31753 12.8608C8.8255 13.1672 9.40685 13.3304 10 13.3333C10.8841 13.3333 11.7319 12.9822 12.3571 12.357C12.9822 11.7319 13.3334 10.8841 13.3334 10C13.3305 9.40683 13.1672 8.82547 12.8609 8.31751L14.3884 6.79001ZM8.39586 10.4258C8.35634 10.2873 8.33532 10.1441 8.33336 10C8.33336 9.55798 8.50896 9.13406 8.82152 8.8215C9.13408 8.50894 9.558 8.33334 10 8.33334C10.1441 8.3353 10.2873 8.35631 10.4259 8.39584L8.39586 10.4258ZM11.6042 9.57417C11.6437 9.71274 11.6647 9.85593 11.6667 10C11.6667 10.442 11.4911 10.866 11.1785 11.1785C10.866 11.4911 10.4421 11.6667 10 11.6667C9.85595 11.6647 9.71276 11.6437 9.5742 11.6042L11.6042 9.57417ZM3.39253 10C4.6242 6.95251 7.1892 5.00001 10 5.00001C11.0599 5.00479 12.1013 5.27832 13.0267 5.79501L11.6825 7.13917C11.1746 6.83284 10.5932 6.66958 10 6.66667C9.11597 6.66667 8.26813 7.01786 7.64301 7.64298C7.01789 8.26811 6.6667 9.11595 6.6667 10C6.6696 10.5932 6.83286 11.1745 7.1392 11.6825L5.6117 13.21C4.63875 12.3216 3.88 11.2241 3.39253 10Z" fill="#84A7D5"/>
</svg>
