<svg width="20" height="20" viewBox="0 0 20 20" fill="none" xmlns="http://www.w3.org/2000/svg">
<path d="M1.71836 10.2883C3.1442 14.1666 6.39586 16.6666 10 16.6666C13.6042 16.6666 16.8559 14.1666 18.2817 10.2883C18.3508 10.1023 18.3508 9.89765 18.2817 9.71165C16.8559 5.83331 13.6042 3.33331 10 3.33331C6.39586 3.33331 3.1442 5.83331 1.71836 9.71165C1.64922 9.89765 1.64922 10.1023 1.71836 10.2883ZM10 4.99998C12.8109 4.99998 15.3759 6.95248 16.6075 9.99998C15.3759 13.0475 12.8109 15 10 15C7.1892 15 4.6242 13.0475 3.39253 9.99998C4.6242 6.95248 7.1892 4.99998 10 4.99998ZM10 13.3333C10.6593 13.3333 11.3038 13.1378 11.8519 12.7715C12.4001 12.4053 12.8273 11.8847 13.0796 11.2756C13.3319 10.6665 13.3979 9.99628 13.2693 9.34968C13.1407 8.70308 12.8232 8.10913 12.3571 7.64296C11.8909 7.17678 11.2969 6.85931 10.6503 6.7307C10.0037 6.60208 9.3335 6.66809 8.72442 6.92038C8.11533 7.17267 7.59473 7.59992 7.22846 8.14808C6.86219 8.69624 6.6667 9.34071 6.6667 9.99998C6.6667 10.884 7.01788 11.7319 7.64301 12.357C8.26813 12.9821 9.11597 13.3333 10 13.3333ZM10 8.33331C10.3297 8.33331 10.6519 8.43106 10.926 8.6142C11.2001 8.79733 11.4137 9.05763 11.5398 9.36217C11.666 9.66672 11.699 10.0018 11.6347 10.3251C11.5704 10.6484 11.4116 10.9454 11.1785 11.1785C10.9455 11.4116 10.6485 11.5703 10.3252 11.6346C10.0019 11.6989 9.66677 11.6659 9.36222 11.5398C9.05768 11.4136 8.79738 11.2 8.61425 10.9259C8.43111 10.6518 8.33336 10.3296 8.33336 9.99998C8.33336 9.55795 8.50896 9.13403 8.82152 8.82147C9.13408 8.50891 9.558 8.33331 10 8.33331Z" fill="#84A7D5"/>
</svg>
