<svg width="61" height="60" viewBox="0 0 61 60" fill="none" xmlns="http://www.w3.org/2000/svg">
<rect x="0.5" width="60" height="60" rx="30" fill="#3B7DD6"/>
<path d="M42.1665 35C40.9801 35.0058 39.8174 35.3323 38.8015 35.945L36.2215 33.365C36.9583 32.1496 37.2783 30.7268 37.1327 29.313C36.9871 27.8991 36.3839 26.5714 35.4148 25.5317L36.9698 21.645C37.0365 21.645 37.0998 21.665 37.1665 21.665C38.3505 21.6766 39.501 21.2718 40.4169 20.5213C41.3328 19.7708 41.9558 18.7223 42.1771 17.5591C42.3984 16.3959 42.2039 15.1918 41.6276 14.1574C41.0513 13.123 40.1299 12.324 39.0243 11.9001C37.9187 11.4761 36.6993 11.4541 35.5791 11.8379C34.459 12.2218 33.5093 12.987 32.8961 13.9999C32.2828 15.0129 32.0451 16.2091 32.2243 17.3796C32.4035 18.55 32.9883 19.6203 33.8765 20.4033L32.5615 23.6917C31.6708 23.3773 30.7209 23.2667 29.7817 23.368C28.8426 23.4692 27.9381 23.7797 27.1348 24.2767L21.6782 18.8217L21.6665 18.8117C21.9929 18.1435 22.1638 17.4102 22.1665 16.6667C22.1665 15.6778 21.8733 14.7111 21.3239 13.8888C20.7744 13.0666 19.9936 12.4257 19.0799 12.0473C18.1663 11.6688 17.161 11.5698 16.1911 11.7627C15.2211 11.9557 14.3302 12.4319 13.631 13.1311C12.9317 13.8304 12.4555 14.7213 12.2626 15.6912C12.0697 16.6611 12.1687 17.6665 12.5471 18.5801C12.9255 19.4937 13.5664 20.2746 14.3887 20.824C15.2109 21.3734 16.1776 21.6667 17.1665 21.6667C17.91 21.6638 18.6433 21.4929 19.3115 21.1667L19.3215 21.1817L24.7782 26.635C24.0507 27.8339 23.7296 29.2356 23.8627 30.6316C23.9957 32.0276 24.5757 33.3434 25.5165 34.3833L20.7832 40.1667C20.4204 40.0602 20.0446 40.0041 19.6665 40C18.7447 39.9891 17.8447 40.2806 17.1042 40.8298C16.3638 41.3791 15.8238 42.1559 15.5669 43.0413C15.31 43.9267 15.3503 44.8718 15.6817 45.7321C16.0131 46.5924 16.6173 47.3204 17.4018 47.8046C18.1863 48.2888 19.1079 48.5026 20.0255 48.4132C20.943 48.3238 21.806 47.9361 22.4823 47.3096C23.1585 46.683 23.6109 45.8521 23.7699 44.9441C23.929 44.036 23.7862 43.1008 23.3632 42.2817L28.2882 36.26C29.1972 36.6015 30.1723 36.7305 31.1389 36.6372C32.1055 36.5439 33.0379 36.2307 33.8648 35.7217L36.4448 38.3017C35.8322 39.3176 35.5056 40.4803 35.4998 41.6667C35.4998 42.9852 35.8908 44.2741 36.6234 45.3705C37.3559 46.4668 38.3971 47.3213 39.6153 47.8259C40.8335 48.3305 42.1739 48.4625 43.4671 48.2052C44.7603 47.948 45.9482 47.3131 46.8806 46.3807C47.8129 45.4484 48.4478 44.2605 48.7051 42.9673C48.9623 41.6741 48.8303 40.3336 48.3257 39.1154C47.8211 37.8973 46.9666 36.8561 45.8703 36.1235C44.774 35.391 43.485 35 42.1665 35ZM17.1665 18.3333C16.8369 18.3333 16.5146 18.2356 16.2406 18.0525C15.9665 17.8693 15.7529 17.609 15.6267 17.3045C15.5006 16.9999 15.4676 16.6648 15.5319 16.3415C15.5962 16.0182 15.7549 15.7212 15.988 15.4882C16.2211 15.2551 16.5181 15.0963 16.8414 15.032C17.1647 14.9677 17.4998 15.0007 17.8043 15.1269C18.1089 15.253 18.3692 15.4666 18.5523 15.7407C18.7354 16.0148 18.8332 16.337 18.8332 16.6667C18.8332 17.1087 18.6576 17.5326 18.345 17.8452C18.0325 18.1577 17.6085 18.3333 17.1665 18.3333ZM27.1665 30C27.1665 29.3407 27.362 28.6963 27.7283 28.1481C28.0945 27.5999 28.6151 27.1727 29.2242 26.9204C29.8333 26.6681 30.5035 26.6021 31.1501 26.7307C31.7967 26.8593 32.3907 27.1768 32.8569 27.643C33.323 28.1092 33.6405 28.7031 33.7691 29.3497C33.8977 29.9963 33.8317 30.6665 33.5794 31.2756C33.3271 31.8847 32.8999 32.4053 32.3517 32.7716C31.8036 33.1378 31.1591 33.3333 30.4998 33.3333C29.6158 33.3333 28.7679 32.9821 28.1428 32.357C27.5177 31.7319 27.1665 30.8841 27.1665 30ZM42.1665 45C41.5072 45 40.8628 44.8045 40.3146 44.4382C39.7664 44.072 39.3392 43.5514 39.0869 42.9423C38.8346 42.3332 38.7686 41.663 38.8972 41.0164C39.0258 40.3698 39.3433 39.7758 39.8095 39.3096C40.2757 38.8435 40.8696 38.526 41.5162 38.3974C42.1628 38.2688 42.833 38.3348 43.4421 38.5871C44.0512 38.8394 44.5718 39.2666 44.9381 39.8148C45.3043 40.3629 45.4998 41.0074 45.4998 41.6667C45.4998 42.5507 45.1487 43.3986 44.5235 44.0237C43.8984 44.6488 43.0506 45 42.1665 45ZM43.8332 26.6667C44.4924 26.6667 45.1369 26.8622 45.6851 27.2284C46.2332 27.5947 46.6605 28.1153 46.9128 28.7244C47.1651 29.3335 47.2311 30.0037 47.1025 30.6503C46.9738 31.2969 46.6564 31.8909 46.1902 32.357C45.724 32.8232 45.1301 33.1407 44.4835 33.2693C43.8369 33.3979 43.1666 33.3319 42.5576 33.0796C41.9485 32.8273 41.4279 32.4001 41.0616 31.8519C40.6953 31.3037 40.4998 30.6593 40.4998 30C40.4998 29.1159 40.851 28.2681 41.4762 27.643C42.1013 27.0179 42.9491 26.6667 43.8332 26.6667ZM17.1665 31.6667C16.5072 31.6667 15.8628 31.4712 15.3146 31.1049C14.7664 30.7386 14.3392 30.218 14.0869 29.6089C13.8346 28.9999 13.7686 28.3296 13.8972 27.683C14.0258 27.0364 14.3433 26.4425 14.8095 25.9763C15.2757 25.5101 15.8696 25.1927 16.5162 25.0641C17.1628 24.9354 17.833 25.0014 18.4421 25.2537C19.0512 25.506 19.5718 25.9333 19.9381 26.4814C20.3043 27.0296 20.4998 27.6741 20.4998 28.3333C20.4998 29.2174 20.1487 30.0652 19.5235 30.6904C18.8984 31.3155 18.0506 31.6667 17.1665 31.6667ZM48.8332 21.6667C48.8332 21.9963 48.7354 22.3185 48.5523 22.5926C48.3692 22.8667 48.1089 23.0803 47.8043 23.2065C47.4998 23.3326 47.1647 23.3656 46.8414 23.3013C46.5181 23.237 46.2211 23.0783 45.988 22.8452C45.7549 22.6121 45.5962 22.3151 45.5319 21.9918C45.4676 21.6685 45.5006 21.3334 45.6267 21.0289C45.7529 20.7243 45.9665 20.464 46.2406 20.2809C46.5146 20.0978 46.8369 20 47.1665 20C47.6085 20 48.0325 20.1756 48.345 20.4882C48.6576 20.8007 48.8332 21.2246 48.8332 21.6667ZM13.8332 35C14.1628 35 14.485 35.0978 14.7591 35.2809C15.0332 35.464 15.2468 35.7243 15.373 36.0289C15.4991 36.3334 15.5321 36.6685 15.4678 36.9918C15.4035 37.3151 15.2448 37.6121 15.0117 37.8452C14.7786 38.0783 14.4816 38.237 14.1583 38.3013C13.835 38.3656 13.4999 38.3326 13.1954 38.2065C12.8908 38.0803 12.6305 37.8667 12.4474 37.5926C12.2643 37.3185 12.1665 36.9963 12.1665 36.6667C12.1665 36.2246 12.3421 35.8007 12.6547 35.4882C12.9672 35.1756 13.3911 35 13.8332 35Z" fill="#F8FAFC"/>
</svg>
