<svg width="60" height="60" fill="none" xmlns="http://www.w3.org/2000/svg"><rect width="60" height="60" rx="30" fill="#2F5E9D"/><path d="M41.667 35a6.578 6.578 0 0 0-3.365.945l-2.58-2.58a6.527 6.527 0 0 0-.807-7.833l1.555-3.887c.067 0 .13.02.197.02a5.05 5.05 0 1 0-3.29-1.262l-1.315 3.289a6.317 6.317 0 0 0-5.427.585l-5.457-5.455-.011-.01a4.93 4.93 0 0 0-.343-4.923 5 5 0 1 0-4.157 7.778 4.933 4.933 0 0 0 2.145-.5l.01.015 5.456 5.453a6.513 6.513 0 0 0 .739 7.748l-4.734 5.784a4.217 4.217 0 1 0 2.58 2.115l4.925-6.022a6.366 6.366 0 0 0 5.577-.538l2.58 2.58A6.579 6.579 0 0 0 35 41.667 6.667 6.667 0 1 0 41.667 35zm-25-16.667a1.667 1.667 0 1 1 0-3.334 1.667 1.667 0 0 1 0 3.334zm10 11.667a3.333 3.333 0 1 1 6.666 0 3.333 3.333 0 0 1-6.666 0zm15 15a3.333 3.333 0 1 1 0-6.666 3.333 3.333 0 0 1 0 6.666zm1.666-18.333a3.334 3.334 0 1 1 0 6.668 3.334 3.334 0 0 1 0-6.668zm-26.666 5a3.333 3.333 0 1 1 0-6.667 3.333 3.333 0 0 1 0 6.667zm31.666-10a1.667 1.667 0 1 1-3.333 0 1.667 1.667 0 0 1 3.333 0zM13.333 35a1.667 1.667 0 1 1 0 3.334 1.667 1.667 0 0 1 0-3.334z" fill="#F8FAFC"/></svg>