<svg width="60" height="60" viewBox="0 0 60 60" fill="none" xmlns="http://www.w3.org/2000/svg">
<rect width="60" height="60" rx="5" fill="#D3E2F7"/>
<path d="M44.9997 16.6667H14.9997C14.5576 16.6667 14.1337 16.8423 13.8212 17.1548C13.5086 17.4674 13.333 17.8913 13.333 18.3334V41.6667C13.333 42.1087 13.5086 42.5326 13.8212 42.8452C14.1337 43.1578 14.5576 43.3334 14.9997 43.3334H44.9997C45.4417 43.3334 45.8656 43.1578 46.1782 42.8452C46.4907 42.5326 46.6663 42.1087 46.6663 41.6667V18.3334C46.6663 17.8913 46.4907 17.4674 46.1782 17.1548C45.8656 16.8423 45.4417 16.6667 44.9997 16.6667ZM21.6663 21.6667C22.3256 21.6667 22.9701 21.8622 23.5182 22.2285C24.0664 22.5947 24.4936 23.1153 24.7459 23.7244C24.9982 24.3335 25.0642 25.0037 24.9356 25.6503C24.807 26.2969 24.4895 26.8909 24.0234 27.357C23.5572 27.8232 22.9632 28.1407 22.3166 28.2693C21.67 28.3979 20.9998 28.3319 20.3907 28.0796C19.7816 27.8273 19.261 27.4001 18.8948 26.8519C18.5285 26.3038 18.333 25.6593 18.333 25C18.333 24.116 18.6842 23.2681 19.3093 22.643C19.9344 22.0179 20.7823 21.6667 21.6663 21.6667ZM43.333 40H16.6663V37.2217L23.333 31.6667L28.0947 35.2384L36.6663 26.6667L43.333 35.555V40Z" fill="#F8FAFC"/>
</svg>
