<svg width="60" height="60" viewBox="0 0 60 60" fill="none" xmlns="http://www.w3.org/2000/svg">
<g clip-path="url(#clip0_56_778)">
<rect width="60" height="60" rx="30" fill="#345474"/>
<path d="M0.0137939 54.2097L14.3589 39.9037C16.9121 37.6759 20.6462 37.4321 23.4689 39.3088L25.3807 40.5796C28.1013 42.3885 31.6836 42.2335 34.2371 40.1966L44.1796 32.2638C46.7139 30.2419 50.244 30.0835 52.9379 31.8164C53.2364 32.0085 53.5022 32.2463 53.7534 32.4971L59.986 38.7123M26.1947 19.2789C26.1947 23.4149 22.8329 26.7676 18.6856 26.7676C14.5384 26.7676 11.1764 23.4149 11.1764 19.2789C11.1764 15.1431 14.5384 11.7903 18.6856 11.7903C22.8329 11.7903 26.1947 15.1431 26.1947 19.2789Z" stroke="#F5F5F5" stroke-width="2" stroke-linecap="round" stroke-linejoin="round"/>
</g>
<defs>
<clipPath id="clip0_56_778">
<rect width="60" height="60" rx="30" fill="white"/>
</clipPath>
</defs>
</svg>
