<svg width="41" height="41" viewBox="0 0 41 41" fill="none" xmlns="http://www.w3.org/2000/svg">
<rect x="0.149414" y="0.5" width="40" height="40" rx="20" fill="#3B7DD6"/>
<path d="M27.2334 14.3408C26.7772 13.7888 26.2042 13.3449 25.5558 13.041C24.9073 12.7371 24.1995 12.5807 23.4834 12.5833C22.2581 12.5462 21.0652 12.9801 20.1501 13.7958C19.235 12.9801 18.0421 12.5462 16.8167 12.5833C16.1006 12.5807 15.3928 12.7371 14.7444 13.041C14.0959 13.3449 13.523 13.7888 13.0667 14.3408C12.2726 15.3041 11.4417 17.0483 11.9926 19.8908C12.8717 24.43 19.4642 28.155 19.7426 28.3075C19.8667 28.3767 20.0064 28.413 20.1484 28.413C20.2905 28.413 20.4302 28.3767 20.5542 28.3075C20.8342 28.1516 27.4267 24.4266 28.3042 19.8908C28.8584 17.0483 28.0276 15.3041 27.2334 14.3408ZM26.6717 19.5741C26.0501 22.7833 21.5317 25.7683 20.1501 26.6166C18.2034 25.4416 14.1984 22.4916 13.6326 19.5741C13.2051 17.3691 13.7901 16.0883 14.3567 15.4016C14.6564 15.0401 15.0324 14.7493 15.4577 14.5502C15.883 14.3511 16.3471 14.2486 16.8167 14.25C17.3183 14.2124 17.8211 14.3054 18.276 14.5199C18.731 14.7344 19.1225 15.0632 19.4126 15.4741C19.4841 15.6058 19.5896 15.7158 19.7181 15.7927C19.8466 15.8697 19.9934 15.9108 20.1432 15.9117C20.293 15.9127 20.4403 15.8734 20.5698 15.7981C20.6992 15.7227 20.8061 15.614 20.8792 15.4833C21.1687 15.0692 21.5611 14.7376 22.0178 14.5214C22.4745 14.3051 22.9796 14.2115 23.4834 14.25C23.954 14.2477 24.4193 14.3498 24.8456 14.5489C25.272 14.7481 25.649 15.0393 25.9492 15.4016C26.5142 16.0883 27.0992 17.3691 26.6717 19.5741Z" fill="#F8FAFC"/>
</svg>
