<svg width="40" height="41" viewBox="0 0 40 41" fill="none" xmlns="http://www.w3.org/2000/svg">
<rect y="0.5" width="40" height="40" rx="20" fill="#3B7DD6"/>
<path d="M25.834 18C26.4932 18 27.1377 17.8045 27.6859 17.4382C28.234 17.0719 28.6613 16.5513 28.9136 15.9423C29.1659 15.3332 29.2319 14.663 29.1032 14.0163C28.9746 13.3697 28.6572 12.7758 28.191 12.3096C27.7248 11.8435 27.1309 11.526 26.4843 11.3974C25.8377 11.2687 25.1674 11.3348 24.5584 11.587C23.9493 11.8393 23.4287 12.2666 23.0624 12.8147C22.6961 13.3629 22.5006 14.0074 22.5006 14.6666C22.5051 14.981 22.5548 15.2931 22.6481 15.5933L16.7181 18.38C16.2815 17.8502 15.6919 17.4681 15.0299 17.286C14.3679 17.1039 13.6658 17.1307 13.0196 17.3627C12.3734 17.5946 11.8146 18.0205 11.4196 18.582C11.0245 19.1436 10.8125 19.8134 10.8125 20.5C10.8125 21.1866 11.0245 21.8564 11.4196 22.4179C11.8146 22.9795 12.3734 23.4053 13.0196 23.6373C13.6658 23.8693 14.3679 23.896 15.0299 23.714C15.6919 23.5319 16.2815 23.1498 16.7181 22.62L22.6481 25.4066C22.5548 25.7069 22.5051 26.0189 22.5006 26.3333C22.4987 27.1058 22.7645 27.8551 23.2528 28.4537C23.741 29.0523 24.4216 29.4633 25.1787 29.6167C25.9358 29.7701 26.7227 29.6564 27.4054 29.2951C28.0882 28.9337 28.6247 28.347 28.9236 27.6347C29.2225 26.9224 29.2655 26.1286 29.0451 25.3882C28.8247 24.6478 28.3546 24.0066 27.7148 23.5738C27.075 23.1409 26.305 22.9431 25.5357 23.014C24.7665 23.0848 24.0456 23.42 23.4956 23.9625L17.4381 21.1166C17.5215 20.71 17.5215 20.2908 17.4381 19.8841L23.4956 17.0375C24.1178 17.6538 24.9582 17.9997 25.834 18ZM25.834 13C26.1636 13 26.4858 13.0977 26.7599 13.2809C27.034 13.464 27.2476 13.7243 27.3738 14.0288C27.4999 14.3334 27.5329 14.6685 27.4686 14.9918C27.4043 15.3151 27.2456 15.6121 27.0125 15.8452C26.7794 16.0782 26.4824 16.237 26.1591 16.3013C25.8358 16.3656 25.5007 16.3326 25.1962 16.2064C24.8916 16.0803 24.6313 15.8667 24.4482 15.5926C24.265 15.3185 24.1673 14.9963 24.1673 14.6666C24.1673 14.2246 24.3429 13.8007 24.6555 13.4881C24.968 13.1756 25.3919 13 25.834 13ZM14.1673 22.1666C13.8377 22.1666 13.5154 22.0689 13.2413 21.8858C12.9673 21.7026 12.7536 21.4423 12.6275 21.1378C12.5014 20.8332 12.4683 20.4981 12.5327 20.1748C12.597 19.8515 12.7557 19.5546 12.9888 19.3215C13.2219 19.0884 13.5188 18.9296 13.8421 18.8653C14.1654 18.801 14.5006 18.834 14.8051 18.9602C15.1096 19.0863 15.3699 19.2999 15.5531 19.574C15.7362 19.8481 15.834 20.1703 15.834 20.5C15.834 20.942 15.6584 21.3659 15.3458 21.6785C15.0332 21.9911 14.6093 22.1666 14.1673 22.1666ZM25.834 24.6666C26.1636 24.6666 26.4858 24.7644 26.7599 24.9475C27.034 25.1307 27.2476 25.391 27.3738 25.6955C27.4999 26.0001 27.5329 26.3352 27.4686 26.6585C27.4043 26.9818 27.2456 27.2787 27.0125 27.5118C26.7794 27.7449 26.4824 27.9036 26.1591 27.968C25.8358 28.0323 25.5007 27.9993 25.1962 27.8731C24.8916 27.747 24.6313 27.5333 24.4482 27.2593C24.265 26.9852 24.1673 26.6629 24.1673 26.3333C24.1673 25.8913 24.3429 25.4674 24.6555 25.1548C24.968 24.8422 25.3919 24.6666 25.834 24.6666Z" fill="#F8FAFC"/>
</svg>
