<svg width="20" height="20" viewBox="0 0 20 20" fill="none" xmlns="http://www.w3.org/2000/svg">
<path d="M2.92917 19.0625C3.05932 19.1346 3.20641 19.1705 3.35515 19.1666C3.50389 19.1626 3.64886 19.1189 3.775 19.04L10 15.1492L16.225 19.04C16.3511 19.1188 16.4961 19.1625 16.6448 19.1664C16.7935 19.1703 16.9405 19.1343 17.0706 19.0622C17.2007 18.9901 17.3092 18.8845 17.3847 18.7563C17.4602 18.6281 17.5 18.4821 17.5 18.3333V3.33333C17.5 2.67029 17.2366 2.0344 16.7678 1.56556C16.2989 1.09672 15.663 0.833328 15 0.833328H5C4.33696 0.833328 3.70107 1.09672 3.23223 1.56556C2.76339 2.0344 2.5 2.67029 2.5 3.33333V18.3333C2.49993 18.4821 2.53969 18.6282 2.61516 18.7564C2.69063 18.8847 2.79905 18.9903 2.92917 19.0625ZM4.16667 3.33333C4.16667 3.11231 4.25446 2.90035 4.41074 2.74407C4.56702 2.58779 4.77899 2.49999 5 2.49999H15C15.221 2.49999 15.433 2.58779 15.5893 2.74407C15.7455 2.90035 15.8333 3.11231 15.8333 3.33333V16.8333L10.4417 13.4633C10.3092 13.3806 10.1562 13.3367 10 13.3367C9.84382 13.3367 9.69078 13.3806 9.55833 13.4633L4.16667 16.8333V3.33333Z" fill="#3B7DD6"/>
</svg>
