<svg width="24" height="24" viewBox="0 0 24 24" fill="none" xmlns="http://www.w3.org/2000/svg">
<path d="M16.7076 8.70696L13.4146 12L16.7076 15.293C16.8031 15.3852 16.8793 15.4956 16.9317 15.6176C16.9841 15.7396 17.0117 15.8708 17.0128 16.0036C17.014 16.1363 16.9887 16.268 16.9384 16.3909C16.8881 16.5138 16.8139 16.6255 16.72 16.7194C16.6261 16.8132 16.5144 16.8875 16.3915 16.9378C16.2686 16.9881 16.1369 17.0134 16.0042 17.0122C15.8714 17.0111 15.7402 16.9835 15.6182 16.9311C15.4962 16.8787 15.3858 16.8025 15.2936 16.707L12.0006 13.414L8.70757 16.707C8.61532 16.8025 8.50498 16.8787 8.38297 16.9311C8.26097 16.9835 8.12975 17.0111 7.99697 17.0122C7.86419 17.0134 7.73251 16.9881 7.60962 16.9378C7.48672 16.8875 7.37507 16.8132 7.28117 16.7194C7.18728 16.6255 7.11303 16.5138 7.06275 16.3909C7.01247 16.268 6.98717 16.1363 6.98832 16.0036C6.98947 15.8708 7.01706 15.7396 7.06947 15.6176C7.12188 15.4956 7.19806 15.3852 7.29357 15.293L10.5866 12L7.29357 8.70696C7.19806 8.61471 7.12188 8.50437 7.06947 8.38236C7.01706 8.26036 6.98947 8.12914 6.98832 7.99636C6.98717 7.86358 7.01247 7.7319 7.06275 7.60901C7.11303 7.48611 7.18728 7.37446 7.28117 7.28056C7.37507 7.18667 7.48672 7.11242 7.60962 7.06214C7.73251 7.01186 7.86419 6.98655 7.99697 6.98771C8.12975 6.98886 8.26097 7.01645 8.38297 7.06886C8.50498 7.12127 8.61532 7.19745 8.70757 7.29296L12.0006 10.586L15.2936 7.29296C15.3858 7.19745 15.4962 7.12127 15.6182 7.06886C15.7402 7.01645 15.8714 6.98886 16.0042 6.98771C16.1369 6.98655 16.2686 7.01186 16.3915 7.06214C16.5144 7.11242 16.6261 7.18667 16.72 7.28056C16.8139 7.37446 16.8881 7.48611 16.9384 7.60901C16.9887 7.7319 17.014 7.86358 17.0128 7.99636C17.0117 8.12914 16.9841 8.26036 16.9317 8.38236C16.8793 8.50437 16.8031 8.61471 16.7076 8.70696Z" fill="#3B7DD6"/>
</svg>
