<svg width="18" height="14" fill="none" xmlns="http://www.w3.org/2000/svg"><path d="M.718 7.288C2.144 11.166 5.396 13.666 9 13.666s6.856-2.5 8.282-6.378a.828.828 0 0 0 0-.577C15.856 2.833 12.604.333 9 .333S2.144 2.833.718 6.711a.828.828 0 0 0 0 .577zM9 2c2.81 0 5.376 1.952 6.607 5-1.231 3.047-3.796 5-6.607 5-2.81 0-5.376-1.953-6.607-5C3.623 3.952 6.188 2 9 2zm0 8.333a3.334 3.334 0 1 0 0-6.667 3.334 3.334 0 0 0 0 6.667zm0-5a1.667 1.667 0 1 1 0 3.333 1.667 1.667 0 0 1 0-3.333z" fill="#183357"/></svg>